HIERARCHY
ROOT mPelvis
{
	OFFSET 0.000000 1.067000 -0.000000
	CHANNELS 6 Xposition Yposition Zposition Xrotation Yrotation Zrotation
	JOINT mTorso
	{
		OFFSET 0.000000 0.084000 -0.000000
		CHANNELS 3 Xrotation Yrotation Zrotation
		JOINT mChest
		{
			OFFSET 0.000000 0.205000 -0.015000
			CHANNELS 3 Xrotation Yrotation Zrotation
			JOINT mNeck
			{
				OFFSET 0.000000 0.251000 -0.010000
				CHANNELS 3 Xrotation Yrotation Zrotation
				JOINT mHead
				{
					OFFSET 0.000000 0.076000 0.000000
					CHANNELS 3 Xrotation Yrotation Zrotation
					JOINT mSkull
					{
						OFFSET 0.000000 0.079000 0.000000
						CHANNELS 3 Xrotation Yrotation Zrotation
						End Site
						{
							OFFSET -0.000000 -0.100000 0.000000
						}
					}
					JOINT mEyeRight
					{
						OFFSET -0.036000 0.079000 0.098000
						CHANNELS 3 Xrotation Yrotation Zrotation
						End Site
						{
							OFFSET -0.000000 -0.100000 0.000000
						}
					}
					JOINT mEyeLeft
					{
						OFFSET 0.036000 0.079000 0.098000
						CHANNELS 3 Xrotation Yrotation Zrotation
						End Site
						{
							OFFSET -0.000000 -0.100000 0.000000
						}
					}
					JOINT HEAD
					{
						OFFSET 0.000000 0.070000 0.020000
						CHANNELS 3 Xrotation Yrotation Zrotation
						End Site
						{
							OFFSET -0.000000 -0.100000 0.000000
						}
					}
				}
				JOINT NECK
				{
					OFFSET 0.000000 0.020000 0.000000
					CHANNELS 3 Xrotation Yrotation Zrotation
					End Site
					{
						OFFSET -0.000000 -0.100000 0.000000
					}
				}
			}
			JOINT mCollarLeft
			{
				OFFSET 0.085000 0.165000 -0.021000
				CHANNELS 3 Xrotation Yrotation Zrotation
				JOINT mShoulderLeft
				{
					OFFSET 0.079000 0.000000 -0.000000
					CHANNELS 3 Xrotation Yrotation Zrotation
					JOINT mElbowLeft
					{
						OFFSET 0.248000 0.000000 -0.000000
						CHANNELS 3 Xrotation Yrotation Zrotation
						JOINT mWristLeft
						{
							OFFSET 0.205000 0.000000 -0.000000
							CHANNELS 3 Xrotation Yrotation Zrotation
							JOINT L_HAND
							{
								OFFSET 0.050000 0.000000 0.010000
								CHANNELS 3 Xrotation Yrotation Zrotation
								End Site
								{
									OFFSET 0.000000 -0.100000 0.000000
								}
							}
						}
						JOINT L_LOWER_ARM
						{
							OFFSET 0.100000 0.000000 -0.000000
							CHANNELS 3 Xrotation Yrotation Zrotation
							End Site
							{
								OFFSET 0.000000 -0.100000 0.000000
							}
						}
					}
					JOINT L_UPPER_ARM
					{
						OFFSET 0.120000 0.010000 -0.000000
						CHANNELS 3 Xrotation Yrotation Zrotation
						End Site
						{
							OFFSET 0.000000 -0.100000 0.000000
						}
					}
				}
				JOINT L_CLAVICLE
				{
					OFFSET 0.000000 0.020000 0.020000
					CHANNELS 3 Xrotation Yrotation Zrotation
					End Site
					{
						OFFSET -0.000000 -0.100000 0.000000
					}
				}
			}
			JOINT mCollarRight
			{
				OFFSET -0.085000 0.165000 -0.021000
				CHANNELS 3 Xrotation Yrotation Zrotation
				JOINT mShoulderRight
				{
					OFFSET -0.079000 0.000000 0.000000
					CHANNELS 3 Xrotation Yrotation Zrotation
					JOINT mElbowRight
					{
						OFFSET -0.248000 0.000000 0.000000
						CHANNELS 3 Xrotation Yrotation Zrotation
						JOINT mWristRight
						{
							OFFSET -0.205000 0.000000 0.000000
							CHANNELS 3 Xrotation Yrotation Zrotation
							JOINT R_HAND
							{
								OFFSET -0.050000 0.000000 0.010000
								CHANNELS 3 Xrotation Yrotation Zrotation
								End Site
								{
									OFFSET 0.000000 -0.100000 0.000000
								}
							}
						}
						JOINT R_LOWER_ARM
						{
							OFFSET -0.100000 0.000000 0.000000
							CHANNELS 3 Xrotation Yrotation Zrotation
							End Site
							{
								OFFSET 0.000000 -0.100000 0.000000
							}
						}
					}
					JOINT R_UPPER_ARM
					{
						OFFSET -0.120000 0.010000 0.000000
						CHANNELS 3 Xrotation Yrotation Zrotation
						End Site
						{
							OFFSET 0.000000 -0.100000 0.000000
						}
					}
				}
				JOINT R_CLAVICLE
				{
					OFFSET 0.000000 0.020000 0.020000
					CHANNELS 3 Xrotation Yrotation Zrotation
					End Site
					{
						OFFSET -0.000000 -0.100000 0.000000
					}
				}
			}
			JOINT CHEST
			{
				OFFSET 0.000000 0.070000 0.028000
				CHANNELS 3 Xrotation Yrotation Zrotation
				End Site
				{
					OFFSET -0.000000 -0.100000 0.000000
				}
			}
			JOINT LEFT_PEC
			{
				OFFSET 0.082000 0.042000 0.119000
				CHANNELS 3 Xrotation Yrotation Zrotation
				End Site
				{
					OFFSET 0.000000 -0.100000 0.000000
				}
			}
			JOINT RIGHT_PEC
			{
				OFFSET -0.082000 0.042000 0.119000
				CHANNELS 3 Xrotation Yrotation Zrotation
				End Site
				{
					OFFSET 0.000000 -0.100000 0.000000
				}
			}
			JOINT UPPER_BACK
			{
				OFFSET 0.000000 0.017253 0.000000
				CHANNELS 3 Xrotation Yrotation Zrotation
				End Site
				{
					OFFSET -0.000000 -0.100000 0.000000
				}
			}
		}
		JOINT BELLY
		{
			OFFSET 0.000000 0.040000 0.028000
			CHANNELS 3 Xrotation Yrotation Zrotation
			End Site
			{
				OFFSET -0.000000 -0.100000 0.000000
			}
		}
		JOINT LOWER_BACK
		{
			OFFSET 0.000000 0.022848 -0.000000
			CHANNELS 3 Xrotation Yrotation Zrotation
			End Site
			{
				OFFSET -0.000000 -0.100000 0.000000
			}
		}
	}
	JOINT mHipRight
	{
		OFFSET -0.129000 -0.041000 0.034000
		CHANNELS 3 Xrotation Yrotation Zrotation
		JOINT mKneeRight
		{
			OFFSET 0.049000 -0.491000 -0.001000
			CHANNELS 3 Xrotation Yrotation Zrotation
			JOINT mAnkleRight
			{
				OFFSET -0.000000 -0.468000 -0.029000
				CHANNELS 3 Xrotation Yrotation Zrotation
				JOINT mFootRight
				{
					OFFSET 0.000000 -0.061000 0.112000
					CHANNELS 3 Xrotation Yrotation Zrotation
					JOINT mToeRight
					{
						OFFSET 0.000000 0.000000 0.109000
						CHANNELS 3 Xrotation Yrotation Zrotation
						End Site
						{
							OFFSET -0.000000 -0.100000 0.000000
						}
					}
				}
				JOINT R_FOOT
				{
					OFFSET 0.000000 -0.041000 0.077000
					CHANNELS 3 Xrotation Yrotation Zrotation
					End Site
					{
						OFFSET 0.000000 -0.100000 0.000000
					}
				}
			}
			JOINT R_LOWER_LEG
			{
				OFFSET -0.000000 -0.200000 -0.020000
				CHANNELS 3 Xrotation Yrotation Zrotation
				End Site
				{
					OFFSET -0.000000 -0.100000 0.000000
				}
			}
		}
		JOINT R_UPPER_LEG
		{
			OFFSET 0.050000 -0.220000 -0.020000
			CHANNELS 3 Xrotation Yrotation Zrotation
			End Site
			{
				OFFSET -0.000000 -0.100000 0.000000
			}
		}
	}
	JOINT mHipLeft
	{
		OFFSET 0.127000 -0.041000 0.034000
		CHANNELS 3 Xrotation Yrotation Zrotation
		JOINT mKneeLeft
		{
			OFFSET -0.046000 -0.491000 -0.001000
			CHANNELS 3 Xrotation Yrotation Zrotation
			JOINT mAnkleLeft
			{
				OFFSET 0.001000 -0.468000 -0.029000
				CHANNELS 3 Xrotation Yrotation Zrotation
				JOINT mFootLeft
				{
					OFFSET 0.000000 -0.061000 0.112000
					CHANNELS 3 Xrotation Yrotation Zrotation
					JOINT mToeLeft
					{
						OFFSET 0.000000 0.000000 0.109000
						CHANNELS 3 Xrotation Yrotation Zrotation
						End Site
						{
							OFFSET -0.000000 -0.100000 0.000000
						}
					}
				}
				JOINT L_FOOT
				{
					OFFSET 0.000000 -0.041000 0.077000
					CHANNELS 3 Xrotation Yrotation Zrotation
					End Site
					{
						OFFSET 0.000000 -0.100000 0.000000
					}
				}
			}
			JOINT L_LOWER_LEG
			{
				OFFSET -0.000000 -0.200000 -0.020000
				CHANNELS 3 Xrotation Yrotation Zrotation
				End Site
				{
					OFFSET -0.000000 -0.100000 0.000000
				}
			}
		}
		JOINT L_UPPER_LEG
		{
			OFFSET -0.050000 -0.220000 -0.020000
			CHANNELS 3 Xrotation Yrotation Zrotation
			End Site
			{
				OFFSET -0.000000 -0.100000 0.000000
			}
		}
	}
	JOINT PELVIS
	{
		OFFSET -0.000000 -0.020000 -0.010000
		CHANNELS 3 Xrotation Yrotation Zrotation
		End Site
		{
			OFFSET -0.000000 -0.100000 0.000000
		}
	}
	JOINT BUTT
	{
		OFFSET -0.000000 -0.100000 -0.060000
		CHANNELS 3 Xrotation Yrotation Zrotation
		End Site
		{
			OFFSET -0.000000 -0.100000 0.000000
		}
	}
}
MOTION
Frames: 4
Frame Time: 0.022222
0.000000 -21.493010 0.000001 108.724488 17.527012 -8.993195 -4.947965 -21.333749 7.240117 -16.014717 -7.271769 0.951385 -23.068730 0.000002 0.000004 -42.969827 -6.859426 -7.097321 0.000001 0.000023 -179.999991 -0.000001 0.000001 0.000000 -0.000001 0.000001 0.000000 -0.000001 0.000001 -0.000000 -0.000000 -0.000001 0.000000 29.193492 27.945726 1.497973 -120.489127 -5.229539 -92.912580 0.000003 -14.325728 -0.000001 50.823834 11.466185 56.070099 -0.000001 0.000001 -0.000000 0.000000 -0.000002 0.000000 -0.000002 0.000000 -0.000000 -0.000003 -0.000001 -0.000000 0.168461 15.952419 -0.070442 -67.505533 11.483639 86.175848 0.000001 9.819824 -0.000002 76.450280 6.770226 -93.653744 0.000000 0.000001 -0.000000 0.000001 -0.000001 -0.000001 0.000001 -0.000001 -0.000000 0.000000 0.000001 0.000000 -0.000001 0.000001 -0.000000 -0.000002 0.000001 -0.000000 -0.000001 0.000001 -0.000000 -0.000001 0.000001 -0.000000 -0.000000 -0.000001 0.000000 0.000000 -0.000001 0.000000 -145.077207 6.237208 -22.020001 127.226316 -5.512016 -3.175328 74.859153 -11.526310 -9.039966 -0.000023 0.000105 -0.000191 0.000000 -0.000001 0.000000 -0.000022 0.000105 -0.000191 -0.000010 -0.000012 -0.000001 -0.000001 0.000002 0.000119 -88.696686 -2.169582 -18.020566 70.507858 -2.035598 -3.562790 67.364073 7.636765 1.358415 -0.000077 0.000133 -0.000244 -0.000002 0.000000 -0.000000 -0.000075 0.000132 -0.000245 0.000003 0.000009 0.000001 0.000002 0.000001 -0.000065 0.000001 -0.000001 0.000001 0.000001 -0.000001 0.000001 
0.000000 -21.493000 0.000001 108.755511 17.729177 -9.098287 -4.955339 -21.548504 7.372668 -15.951632 -7.343284 0.931092 -23.048019 0.000002 0.000006 -42.978467 -6.892278 -7.195010 0.000002 0.000023 -179.999991 0.000000 0.000000 0.000002 0.000000 0.000000 0.000002 0.000000 0.000000 0.000002 0.000003 -0.000000 -0.000000 29.361446 28.170577 1.440399 -120.638940 -5.084323 -93.004821 -0.000000 -13.015592 0.000001 50.069972 10.599910 58.434775 -0.000000 0.000001 0.000001 0.000001 0.000000 0.000000 -0.000001 0.000000 -0.000000 -0.000001 -0.000001 0.000000 -0.000001 16.181032 0.000001 -67.217285 11.475760 86.080259 -0.000000 9.802127 0.000000 76.489301 6.712339 -93.629005 -0.000000 0.000000 -0.000000 0.000001 -0.000001 -0.000000 0.000001 0.000000 -0.000000 0.000000 0.000000 -0.000000 0.000001 0.000001 -0.000000 -0.000000 0.000001 -0.000000 -0.000000 0.000000 -0.000000 0.000000 0.000000 0.000000 -0.000001 -0.000000 -0.000000 -0.000001 -0.000000 -0.000000 -145.040952 6.376202 -22.186048 125.496871 -5.422244 -3.233485 75.188826 -11.573661 -9.008716 -0.000021 0.000108 -0.000195 -0.000001 -0.000001 -0.000000 -0.000021 0.000107 -0.000195 -0.000009 -0.000013 -0.000001 0.000002 0.000002 0.000119 -88.418083 -2.179728 -18.278114 70.223005 -2.019587 -3.555264 67.364407 7.636820 1.358397 -0.000080 0.000135 -0.000246 -0.000001 -0.000000 -0.000000 -0.000079 0.000135 -0.000249 0.000002 0.000010 -0.000000 0.000005 0.000002 -0.000064 0.000000 -0.000000 0.000002 0.000000 -0.000000 0.000002 
0.000000 -21.493000 0.000001 108.726387 17.543445 -9.001613 -4.948578 -21.351036 7.250779 -16.009637 -7.277525 0.949749 -23.067058 0.000001 0.000005 -42.928483 -6.864781 -7.102780 0.000001 0.000022 -179.999991 -0.000001 0.000000 0.000000 -0.000001 0.000000 0.000000 -0.000001 0.000000 -0.000000 -0.000000 -0.000000 -0.000000 29.198751 27.956695 1.495028 -120.317430 -5.156583 -92.925291 0.000001 -12.630448 0.000000 49.776916 9.549124 60.508455 -0.000001 -0.000003 0.000001 0.000001 0.000000 -0.000001 -0.000001 0.000001 -0.000001 -0.000001 -0.000000 -0.000000 0.154918 15.970820 -0.064800 -67.482330 11.483033 86.168150 0.000001 10.652383 0.000001 76.218306 6.523814 -92.501764 0.000000 -0.000001 -0.000000 0.000000 0.000000 0.000000 0.000002 -0.000002 0.000000 0.000001 0.000000 0.000000 -0.000001 0.000001 -0.000000 -0.000001 -0.000000 -0.000000 -0.000001 -0.000000 -0.000000 -0.000002 0.000001 -0.000000 -0.000001 -0.000000 -0.000000 -0.000000 -0.000000 -0.000000 -144.854106 6.212263 -22.044265 123.652789 -5.324616 -3.292466 75.117020 -11.560382 -9.011964 -0.000028 0.000106 -0.000196 0.000003 0.000000 -0.000000 -0.000027 0.000105 -0.000196 -0.000009 -0.000011 -0.000001 -0.000005 0.000002 0.000121 -88.674242 -2.170351 -18.041320 70.833433 -2.053929 -3.571274 66.940669 7.614988 1.353363 -0.000076 0.000134 -0.000245 -0.000001 0.000000 0.000000 -0.000073 0.000133 -0.000244 0.000003 0.000010 0.000001 0.000004 0.000002 -0.000065 -0.000001 -0.000002 0.000001 -0.000001 -0.000002 0.000001 
0.000000 -21.493000 0.000001 108.644240 17.006532 -8.723385 -4.926573 -20.780367 6.899235 -16.177124 -7.087818 1.003962 -23.122011 0.000002 0.000006 -42.784438 -6.784947 -6.836716 0.000001 0.000020 -179.999991 -0.000001 0.000000 -0.000001 -0.000001 0.000000 -0.000001 -0.000001 0.000000 -0.000001 -0.000001 -0.000001 -0.000001 28.731440 27.337532 1.648544 -119.385655 -5.363312 -92.692661 0.000003 -12.277357 0.000002 49.768481 8.400001 62.606504 -0.000000 0.000003 -0.000000 0.000001 0.000001 -0.000001 0.000002 -0.000000 0.000000 -0.000002 -0.000000 0.000000 0.600599 15.362064 -0.248484 -68.248903 11.501799 86.422568 -0.000001 13.015223 0.000000 75.406012 6.082128 -89.412415 -0.000001 0.000000 -0.000000 0.000000 0.000000 -0.000001 -0.000001 -0.000001 -0.000000 -0.000000 0.000001 0.000000 -0.000002 0.000000 0.000000 -0.000002 -0.000001 0.000000 -0.000002 -0.000001 -0.000000 -0.000002 -0.000001 0.000000 0.000001 -0.000000 0.000000 0.000001 -0.000000 -0.000000 -144.311461 5.740502 -21.631226 121.706075 -5.219537 -3.351272 74.909820 -11.522044 -9.021262 -0.000024 0.000103 -0.000189 0.000001 -0.000001 -0.000001 -0.000025 0.000103 -0.000191 -0.000009 -0.000011 -0.000001 0.000004 0.000002 0.000122 -89.416650 -2.149162 -17.354997 72.557612 -2.151824 -3.614515 65.767796 7.554760 1.338588 -0.000075 0.000133 -0.000239 -0.000003 -0.000000 -0.000000 -0.000077 0.000133 -0.000242 0.000003 0.000009 0.000001 0.000002 0.000003 -0.000068 -0.000002 -0.000002 0.000001 -0.000002 -0.000002 0.000001 
